<svg width="2851" height="907" viewBox="0 0 2851 907" fill="none" xmlns="http://www.w3.org/2000/svg">
<path d="M2555.38 659.613C2607.56 684.98 2647.28 693.436 2708.56 693.436C2799.23 693.436 2850.81 649.158 2850.81 581.974C2850.81 517.556 2803.23 488.96 2721.03 472.049C2664.22 460.211 2642.67 451.14 2642.67 431.615C2642.67 412.705 2660.37 400.405 2694.85 400.405C2730.11 400.405 2770.6 410.091 2805.08 423.159L2835.1 356.743C2796.62 341.061 2752.28 327.993 2696.86 327.993C2614.65 327.993 2561.84 372.271 2561.84 436.227C2561.84 504.488 2617.26 529.24 2693.62 546.152C2748.43 557.99 2768.6 567.061 2768.6 587.201C2768.6 605.496 2752.28 621.178 2710.56 621.178C2666.22 621.178 2632.97 611.338 2589.24 592.428L2555.38 659.613Z" fill="white"/>
<path d="M2503.49 417.317V342.445H2404.35V205H2313.06V342.445H2262.87V417.317H2313.06V589.814C2313.06 664.071 2360.63 701.276 2420.05 701.276C2470.86 701.276 2498.26 689.592 2502.26 688.208V620.562C2489.79 621.792 2476.09 623.791 2460.54 623.791C2414.82 623.791 2404.35 605.496 2404.35 542.308V417.317H2503.49Z" fill="white"/>
<path d="M2063.2 327.993C2027.33 327.993 1994.69 338.448 1968.67 356.743V334.604H1877.99V688.209H1968.67V437.457C1988.84 419.93 2015.01 409.476 2046.88 409.476C2097.07 409.476 2123.85 436.227 2123.85 490.805V688.209H2214.53V490.805C2214.53 376.268 2166.96 327.993 2063.2 327.993Z" fill="white"/>
<path d="M1830.58 537.081C1830.58 531.239 1831.19 524.013 1831.19 516.941C1831.19 406.862 1767.92 327.993 1658.92 327.993C1552.08 327.993 1477.73 409.476 1477.73 511.099C1477.73 611.953 1552.08 693.436 1658.92 693.436C1728.05 693.436 1786.24 664.686 1818.72 620.409L1760.69 572.288C1741.13 599.039 1706.65 615.95 1669.39 615.95C1615.36 615.95 1578.1 583.357 1568.4 537.081H1830.58ZM1658.92 400.405C1719.58 400.405 1741.13 438.841 1744.37 479.121H1569.02C1577.48 435.458 1611.35 400.405 1658.92 400.405Z" fill="white"/>
<path d="M1334.24 343.367L1238.33 543.846L1141.81 343.367H1046.66L1216.78 696.972H1259.89L1429.38 343.367H1334.24Z" fill="white"/>
<path d="M913.344 205V362.585C884.094 346.288 848.223 335.834 810.352 335.834C711.824 335.834 631 408.246 631 518.939C631 627.634 711.824 701.891 810.352 701.891C847.454 701.891 884.71 691.437 913.344 674.526V696.049H1004.64V205H913.344ZM826.67 619.794C766.014 619.794 721.061 578.745 721.061 518.939C721.061 460.979 766.014 417.317 826.67 417.317C861.155 417.317 891.791 429.001 913.344 447.296V589.199C891.791 608.109 860.539 619.794 826.67 619.794Z" fill="white"/>
<path fill-rule="evenodd" clip-rule="evenodd" d="M570.666 701.535H487.472C483.606 701.482 479.819 700.428 476.484 698.474C473.148 696.52 470.378 693.735 468.445 690.391L448.302 655.509C447.038 653.333 446.37 650.864 446.365 648.349C446.36 645.833 447.018 643.361 448.274 641.181C449.53 639.001 451.338 637.189 453.518 635.928C455.697 634.668 458.171 634.003 460.689 634H543.939C547.814 634.013 551.616 635.052 554.958 637.009C558.3 638.967 561.063 641.774 562.966 645.144L583.109 680.026C584.358 682.208 585.012 684.679 585.006 687.193C585 689.706 584.334 692.174 583.075 694.35C581.816 696.527 580.008 698.335 577.83 699.596C575.653 700.857 573.183 701.525 570.666 701.535Z" fill="white"/>
<path fill-rule="evenodd" clip-rule="evenodd" d="M477.214 499.475L338.39 259.147L338.836 258.423L278.463 154L5.72515 625.629C-0.377243 637.564 -1.6562 651.384 2.1525 664.234C5.9612 677.083 14.5666 687.981 26.1909 694.676C37.8152 701.37 51.5704 703.351 64.6149 700.207C77.6594 697.064 88.9966 689.037 96.2845 677.785L278.017 363.625L356.413 499.475H273.33C259.474 499.49 246.19 504.997 236.397 514.787C226.604 524.577 221.104 537.849 221.104 551.687C221.118 565.515 226.625 578.772 236.417 588.55C246.208 598.328 259.483 603.828 273.33 603.842H537.531L477.214 499.475Z" fill="white"/>
</svg>
